<svg id="Ebene_1" data-name="Ebene 1" xmlns="http://www.w3.org/2000/svg" width="16" height="16" viewBox="0 0 16 16"><defs><style>.cls-1{fill:#0098d6;}.cls-2{fill:#103a5d;}</style></defs><title>charts</title><path class="cls-1" d="M4.06,10v5.19H.49V10A9.47,9.47,0,0,0,4.06,10Z"/><path class="cls-1" d="M9.38,7.67v7.55H5.81V9.59A13.11,13.11,0,0,0,9.38,7.67Z"/><path class="cls-1" d="M14.72,2.25v13H11.15V6.15a23.8,23.8,0,0,0,3.17-3.9Z"/><path class="cls-2" d="M16.17.73l-2,6.8L12.3,5.67A36.26,36.26,0,0,1,8,8.64a29.17,29.17,0,0,1-3.46,1.71A22.59,22.59,0,0,1-2.1,12a18.53,18.53,0,0,1-3.07,0A17.09,17.09,0,0,1-8,11.6a16.71,16.71,0,0,1-3.16-1.09,9.54,9.54,0,0,1-1.5-.85l1.27-1.61h0a8.41,8.41,0,0,0,1.15.64A14.8,14.8,0,0,0-5.06,10a16.37,16.37,0,0,0,2.71,0,20.16,20.16,0,0,0,6-1.5A27.29,27.29,0,0,0,6.82,6.89a35.23,35.23,0,0,0,4-2.7L8.9,2.35Z"/></svg>